inDegrees=no
num_controls=7
num_derivatives=13
num_iterations=109
num_multipliers=7
num_parameters=0
num_slacks=7
num_states=26
objective=0.477092
objective_accelerations=0.043810
objective_balance=0.003712
objective_effort=0.040554
objective_height=0.383341
objective_ligament=0.005674
solver_duration=1525.835566
status=Solve_Succeeded
success=true
DataType=double
version=3
OpenSimVersion=4.5
endheader
time	/jointset/ground_pelvis/pelvis_tilt/value	/jointset/ground_pelvis/pelvis_tx/value	/jointset/ground_pelvis/pelvis_ty/value	/jointset/hip_l/hip_flexion_l/value	/jointset/hip_l/hip_adduction_l/value	/jointset/hip_l/hip_rotation_l/value	/jointset/back/lumbar_extension/value	/jointset/patellofemoral_l/patellar_flexion_l/value	/jointset/knee_l/knee_flexion_l/value	/jointset/knee_l/knee_adduction_l/value	/jointset/knee_l/knee_rotation_l/value	/jointset/ankle_l/ankle_angle_l/value	/jointset/subtalar_l/subtalar_angle_l/value	/jointset/ground_pelvis/pelvis_tilt/speed	/jointset/ground_pelvis/pelvis_tx/speed	/jointset/ground_pelvis/pelvis_ty/speed	/jointset/hip_l/hip_flexion_l/speed	/jointset/hip_l/hip_adduction_l/speed	/jointset/hip_l/hip_rotation_l/speed	/jointset/back/lumbar_extension/speed	/jointset/patellofemoral_l/patellar_flexion_l/speed	/jointset/knee_l/knee_flexion_l/speed	/jointset/knee_l/knee_adduction_l/speed	/jointset/knee_l/knee_rotation_l/speed	/jointset/ankle_l/ankle_angle_l/speed	/jointset/subtalar_l/subtalar_angle_l/speed	/forceset/tau_hip_flexion_l	/forceset/tau_hip_adduction_l	/forceset/tau_hip_rotation_l	/forceset/tau_knee_flexion_l	/forceset/tau_ankle_angle_l	/forceset/tau_subtalar_angle_l	/forceset/tau_lumbar_extension	lambda_cid13_p0	lambda_cid13_p1	lambda_cid13_p2	lambda_cid13_p3	lambda_cid13_p4	lambda_cid13_p5	lambda_cid14_p0	/jointset/ground_pelvis/pelvis_tilt/accel	/jointset/ground_pelvis/pelvis_tx/accel	/jointset/ground_pelvis/pelvis_ty/accel	/jointset/hip_l/hip_flexion_l/accel	/jointset/hip_l/hip_adduction_l/accel	/jointset/hip_l/hip_rotation_l/accel	/jointset/back/lumbar_extension/accel	/jointset/patellofemoral_l/patellar_flexion_l/accel	/jointset/knee_l/knee_flexion_l/accel	/jointset/knee_l/knee_adduction_l/accel	/jointset/knee_l/knee_rotation_l/accel	/jointset/ankle_l/ankle_angle_l/accel	/jointset/subtalar_l/subtalar_angle_l/accel	gamma_cid13_p0	gamma_cid13_p1	gamma_cid13_p2	gamma_cid13_p3	gamma_cid13_p4	gamma_cid13_p5	gamma_cid14_p0
1.5	0.008468914613504387	-0.01314049946043952	0.8532733656630144	0.671015640413822	-0.322833969472722	-0.1338718458577466	-0.7977725158208159	0.7705789864613874	0.7705789864613998	-0.1056549080980699	-0.174518325557823	0.1478320917647504	0.02167234257065892	0.3220419628050344	0.2357688170835966	0.4180516819471911	-1.976036139958238	0.08566259292379315	-0.6425484727669468	0.8395401102583949	-1.974583506624159	-1.974583506623817	-0.137837955035942	-0.0001292267041716714	-0.4406368803215368	-0.05535943753956624	-0.1966102407057355	0.02931097916994664	-0.004974924745930133	-0.2267802212162188	0.07244865672182155	0.03429021792754583	0.2791460973102223	-19.17614600351624	-13.55754279073761	4.01778022675007	-8.236524053950234	-670.1478436295048	-69.40099550832318	-15.54159131563627	-0.02585015128225729	0.6614899935972944	-0.6049283855708454	-0.6950873177177577	0.4756107072439858	-0.3467043703315912	1.990901303682625	-0.9962205406957498	-0.996220540695709	-0.2625075975023169	0.03013577592855819	-0.2592623456723281	0.4580260702801567	2.832570573209249e-07	1.076760823696095e-06	-1.184622912851475e-06	1.183516951018261e-08	3.738366339154954e-07	5.380604486826743e-07	2.708159550989638e-07
1.51	0.01168795009738002	-0.01074995033742408	0.8574228107795453	0.6512223042559055	-0.3219543240913937	-0.140315245440916	-0.7892790054196139	0.7507857587513742	0.7507857587513814	-0.107047185089333	-0.1745199616729656	0.1434132721519465	0.02114086962842457	0.3217287298011313	0.2423158667955993	0.4117507322939332	-1.982376713811401	0.09026119464289714	-0.6460395566492563	0.8590473974776008	-1.983775662214932	-1.983775662214722	-0.1406340706328187	-0.0001849230207653888	-0.4430378733916326	-0.05091861733362067	-0.1895262838829994	0.02844787333028166	-0.004782322999678621	-0.2228060648670832	0.07273933757262557	0.03360078996557438	0.2721846865214518	-18.84960301167671	-13.37524611698386	4.057190384168525	-8.112507671073718	-665.64618496193	-69.34187311600299	-16.24481640140461	-0.03952049429205439	0.6475752900137705	-0.6556137589984373	-0.5653848847522291	0.4510320743206041	-0.3363310503951887	1.913456555360407	-0.8377978903696043	-0.8377978903893722	-0.2903929379278688	-0.02151687406056621	-0.2170864563235107	0.4393574294613126	1.893289719608344e-07	1.457954532223103e-06	-5.733388573652451e-07	1.160211682155315e-07	3.114291159167234e-07	5.480519279847841e-07	2.267063371416198e-07
1.52	0.01490276112734634	-0.008294678151286223	0.8615066592987847	0.6313731938663294	-0.3210288832588591	-0.1467907599935538	-0.7805938593213558	0.7309091925210314	0.7309091925210353	-0.1084678691159866	-0.1745217736589968	0.138973128874712	0.02065425437499156	0.3211970720233236	0.2487134297080811	0.4049323624888692	-1.987190986290029	0.09482168316508478	-0.6489714666601492	0.8778672496696409	-1.991251210689766	-1.991251210689687	-0.1435193621155981	-0.0001644008816478269	-0.44490161320754	-0.04638789977929317	-0.1824423270602677	0.02758476749060506	-0.004589721253366348	-0.2188319085179531	0.07303001842342487	0.03291136200358664	0.2652232757326813	-18.52265897530179	-13.1945906967433	4.098657053362637	-8.02323864340484	-661.1658433508694	-69.31396855142886	-16.93801860824838	-0.06953510606317839	0.6315926336931245	-0.7084124159320853	-0.3898270428109485	0.4679880678607246	-0.2348695960481952	1.853414298249416	-0.6528991175079322	-0.6528991175079282	-0.2803427746828685	0.04537946707085387	-0.151811694834602	0.476005539956564	1.355398904410527e-07	1.728976030216537e-06	-2.163905640599821e-07	1.798695898339435e-07	2.850460131882801e-07	5.674530170770463e-07	2.050386356626068e-07
1.53	0.01811106744984623	-0.005776241368438993	0.8655198557095962	0.6114834957998847	-0.3200579889276644	-0.1532936038887735	-0.7717242167154019	0.7109662047607967	0.7109662047607938	-0.1099173712894361	-0.1745234830121069	0.1345169202546245	0.02021341747894806	0.3204133701600608	0.2549419317606845	0.3976301936984801	-1.990486967825575	0.09935471557310936	-0.6515335150691751	0.8959262220997278	-1.997075272025454	-1.997075272025071	-0.1463734383712034	-0.0001762725534458085	-0.4462590436950732	-0.04176225044290553	-0.1749435001472652	0.02624871770242618	-0.004481421612289766	-0.2156084313278894	0.07396351524094362	0.03224322203336984	0.2579693366438339	-18.01201689739754	-13.05141669388774	4.141612166900376	-7.975092895516662	-656.9962972182642	-69.45594399401021	-17.62178215713307	-0.09041893838582148	0.6137221452469086	-0.7525673456852564	-0.260242414031137	0.4453631601994249	-0.2571063307099801	1.761881302150815	-0.5065409181340962	-0.5065409180884513	-0.2864719771576115	-0.02431778126230961	-0.1154844192650204	0.4581267635746777	1.243985005015987e-07	1.882939554518047e-06	-1.296740180719934e-07	2.008593357974853e-07	2.969388516845608e-07	5.968518165713454e-07	2.0721547044182e-07
1.54	0.02131001051132659	-0.003196470934225165	0.8694577407854854	0.5915686861770635	-0.3190418838058047	-0.1598201150415587	-0.7626780358677946	0.6909731001319048	0.6909731001318862	-0.1113951206106817	-0.1745252805413096	0.1300495821909513	0.0198192935028874	0.3193244198196796	0.2609801599814007	0.38987009550437	-1.99221329756531	0.1038638412981777	-0.6537049181734069	0.9131748980003157	-2.001274584422536	-2.001274584421849	-0.1491687916731378	-0.0001820361035323883	-0.4471275019246997	-0.03704531578272514	-0.1674446732342577	0.02491266791424854	-0.004373121971295843	-0.2123849541378203	0.07489701205846326	0.03157508206315626	0.2507153975549901	-17.49911369068083	-12.90949598764456	4.185746528818709	-7.964608093701267	-652.8213790073389	-69.6221370124853	-18.29630679645449	-0.1305848014868825	0.5935378673157179	-0.7999982966763056	-0.07589668364861481	0.4632067312695087	-0.1567405350892763	1.691354992349626	-0.3279493297866906	-0.3279493297866923	-0.2685981839486985	0.0466010914131865	-0.05401724325324285	0.4942626047151387	1.043074851724691e-07	1.944195677329453e-06	-5.288044443041034e-08	2.193630243644211e-07	2.80196685177435e-07	5.949230917912235e-07	2.019424660311304e-07
1.55	0.02449650375993167	-0.0005573654118702275	0.8733157490271616	0.5716448179814621	-0.3179807652313111	-0.166366313760549	-0.753463377704148	0.6709465488037808	0.6709465488038056	-0.1129003361640975	-0.1745270565607207	0.1255761551172047	0.01947290476946894	0.3179360434362177	0.2667989016826718	0.3816611206459823	-1.992294279440569	0.1083483160213383	-0.6554603873447384	0.9296036359643122	-2.003741213367859	-2.003741213367714	-0.1518714795241969	-0.0001743084580717831	-0.447471287358738	-0.03222350812876064	-0.1602140553788039	0.02387831536141485	-0.004310905742478593	-0.2087589229265122	0.07514949453900277	0.03072940348428188	0.2436168273716276	-17.22715636970814	-12.64532913764819	4.207018063322052	-7.698759891424524	-648.8391772868791	-69.54108029098987	-18.95062957633534	-0.1487032704177573	0.5697846387151628	-0.841871341820092	0.06569712153880385	0.4390938711420244	-0.1736211351055495	1.595668383691656	-0.1618855793655581	-0.1618855794470175	-0.2703639114167125	-0.02231761364371099	-0.01150976073520551	0.4771760521982195	7.390494493784418e-08	1.898636750597918e-06	1.248013933379311e-08	2.350023424526588e-07	2.304620129055165e-07	5.568996107818792e-07	1.880859512494663e-07
1.56	0.02766796540197259	0.002138675990933867	0.8770895626679741	0.5517281191793089	-0.3168751967039256	-0.1729278013766422	-0.7440890251238079	0.6509041580057124	0.6509041580057741	-0.1144324305611698	-0.174528790546619	0.1211019000756664	0.01917494135388235	0.3163180985070818	0.2723673360712319	0.3730311753315827	-1.990779418875692	0.1127538318766061	-0.6567626975940889	0.9451137813389905	-2.004442478411602	-2.004442478412001	-0.1545445604045439	-0.000173629402860119	-0.4472930954830194	-0.02736025221635138	-0.1529834375233445	0.02284396280858329	-0.004248689513657799	-0.2051328917152027	0.07540197701954265	0.02988372490540949	0.2365182571882689	-16.95868916412762	-12.38120173743388	4.229039129263738	-7.449364777222113	-644.9295998156335	-69.4863832980631	-19.57777262579568	-0.1764985106216979	0.5434764047735142	-0.8841923878786933	0.2432718043787733	0.4474149576910058	-0.06610875069299871	1.507636474486008	0.02512345052905773	0.0251234505290567	-0.2626767898062896	0.0451913733634762	0.05037821869816986	0.5025522564041267	6.002931796634541e-08	1.87123651087673e-06	1.672007245165784e-08	2.405645203443743e-07	2.07447993040593e-07	5.434854159504939e-07	1.837633706224809e-07
1.57	0.03082195507621229	0.004889111815682412	0.8807750685593468	0.5318346252834756	-0.3157259985238541	-0.1794997897055775	-0.7345642484593001	0.6308634999164612	0.6308634999165394	-0.1159912959664328	-0.174530309740483	0.1166320113156309	0.01892578029466991	0.3144287769706473	0.2776734928974142	0.3640094775096634	-1.987643095670544	0.1170729743481169	-0.6575475867480955	0.9596770629920731	-2.003399416515053	-2.003399416515502	-0.1572231936646879	-0.0001154681063257164	-0.4465987917404692	-0.02246430656203807	-0.1454263053011568	0.02133854544748707	-0.004273029074631627	-0.2022017015353688	0.07638683278552763	0.02906815852655775	0.2292516126025199	-16.47638758202124	-12.16257012080325	4.252575913826138	-7.319042863393495	-641.3568425338906	-69.60666639389977	-20.17326534936743	-0.2028184769065786	0.517280820485804	-0.9201925313267374	0.3902402384616011	0.4220149692484834	-0.07139710961740474	1.40600072512041	0.1873168516725724	0.1873168516652367	-0.2693517484240497	-0.01169615295030052	0.09188909060590041	0.4839802660754123	6.681233257375414e-08	1.866534629918474e-06	-5.54408077384001e-08	2.335302729904372e-07	2.178347886844128e-07	5.608328288415573e-07	1.913582076888436e-07
1.58	0.0339555176347359	0.007691228308481809	0.8843685506621046	0.5119807801516688	-0.3145340387035946	-0.1860769705484249	-0.7248987736353816	0.6108419563046587	0.6108419563047662	-0.1175767267351486	-0.174530812253634	0.1121716521207352	0.0187257516012267	0.3122326753641274	0.2827034696814023	0.3546264176086016	-1.98284966607024	0.1213061599143228	-0.6578012003766217	0.9732534132211984	-2.000619582920313	-2.00061958292081	-0.1598576330970567	2.970676025936285e-05	-0.4453871824550203	-0.01753377906250586	-0.1378691730789698	0.0198331280863911	-0.004297368635486602	-0.1992705113555434	0.07737168855151119	0.02825259214770421	0.221984968016771	-15.9984349234539	-11.94248275063917	4.275088030862835	-7.20149253644683	-637.8691799118044	-69.7551159161421	-20.73268142491087	-0.2378545246388258	0.488240396334672	-0.9564648037072064	0.5746930834102195	0.4302235766300406	0.04014635440316416	1.310250189694536	0.3724777901674019	0.3724777901673599	-0.2538380242512335	0.06259408737363896	0.1538393272779242	0.5094686254479253	6.124044379195e-08	1.836966047924198e-06	-6.951400189875188e-08	2.287448624344671e-07	2.160253539364735e-07	5.518662574739267e-07	1.886573228289781e-07
1.59	0.03706559752400469	0.01054215045309368	0.8878664651623133	0.4921833996002721	-0.3133000139215065	-0.1926540891722555	-0.7151026244790131	0.5908571357802109	0.5908571357801962	-0.1191877901455284	-0.1745293352617512	0.1077260775439472	0.01857542710490221	0.3097401594178063	0.2874232454010405	0.3449041771344067	-1.976336553298415	0.1254877852971688	-0.6575387740242469	0.9857878378410899	-1.996032929873696	-1.996032929874038	-0.1623221112872337	0.0002762922979264763	-0.4436373631333024	-0.0125191170857673	-0.1304517184465075	0.01854496347245948	-0.004371621434030181	-0.1961228208896362	0.07793196636311174	0.02728172798633422	0.2148059369305924	-15.68068528099564	-11.62326662716954	4.277646617832615	-6.886157501784474	-634.6122141933783	-69.72193527052661	-21.25164457429671	-0.2614371043501298	0.4552342795397795	-0.9879121198424982	0.7330865156117983	0.4102480339844179	0.03199263670575637	1.196751566398644	0.54846546699006	0.5484654670132256	-0.2375195139350784	0.007267072327060933	0.1991543862444288	0.4989874436563889	3.890118612478651e-08	1.773649800238183e-06	-4.75390787593539e-09	2.270114446757377e-07	1.976638922282905e-07	5.071878503266422e-07	1.719836724978037e-07
